PathFileType	4	(X/Y/Z)	Walk5.trc
DataRate	CameraRate	NumFrames	NumMarkers	Units	OrigDataRate	OrigDataStartFrame	OrigNumFrames
200.000000	200.000000	5	58	mm	200.000000	406	695
Frame#	Times		LToe		RBHD		LWRR		LElbow		LACR1		C7		RMT5		RToe		RTB2		LCAR		RTB3		LWRU		RCAR		RMT1		LElbowM		RFA1		RMMAL		LTH3		LASI		RCAL		RWRU		RLFC		LTH4		RElbow		LTB2		LMMAL		LPSI		RASI		RElbowM		LCAL		RPSI		LLFC		RTH3		LBHD		T10		LTH2		RFHD		RBack		LMT5		LUA1		RUA1		LFHD		RLMAL		RMFC		LLMAL		LMFC		RACR1		LTB1		RWRR		LTB4		LTB3		RTH4		RTB1		LMT1		RTH1		RTB4		RTH2		LTH1
			X1	Y1	Z1	X2	Y2	Z2	X3	Y3	Z3	X4	Y4	Z4	X5	Y5	Z5	X6	Y6	Z6	X7	Y7	Z7	X8	Y8	Z8	X9	Y9	Z9	X10	Y10	Z10	X11	Y11	Z11	X12	Y12	Z12	X13	Y13	Z13	X14	Y14	Z14	X15	Y15	Z15	X16	Y16	Z16	X17	Y17	Z17	X18	Y18	Z18	X19	Y19	Z19	X20	Y20	Z20	X21	Y21	Z21	X22	Y22	Z22	X23	Y23	Z23	X24	Y24	Z24	X25	Y25	Z25	X26	Y26	Z26	X27	Y27	Z27	X28	Y28	Z28	X29	Y29	Z29	X30	Y30	Z30	X31	Y31	Z31	X32	Y32	Z32	X33	Y33	Z33	X34	Y34	Z34	X35	Y35	Z35	X36	Y36	Z36	X37	Y37	Z37	X38	Y38	Z38	X39	Y39	Z39	X40	Y40	Z40	X41	Y41	Z41	X42	Y42	Z42	X43	Y43	Z43	X44	Y44	Z44	X45	Y45	Z45	X46	Y46	Z46	X47	Y47	Z47	X48	Y48	Z48	X49	Y49	Z49	X50	Y50	Z50	X51	Y51	Z51	X52	Y52	Z52	X53	Y53	Z53	X54	Y54	Z54	X55	Y55	Z55	X56	Y56	Z56	X57	Y57	Z57	X58	Y58	Z58

406	2.03	-226.11	48.403	-38.375	-511.07	1601.6	-46.653	-549.18	807.38	-271.29	-561.22	1088.9	-272.23	-451.78	1411.1	-150.75	-544.12	1473.6	18.024	-757.36	84.629	142.35	-691.72	44.943	106.8	-601.57	318.05	145.3	-570.3	948.07	-279.18	-669.16	260.83	70.633	-485.46	777.55	-245.44	-439.98	780.38	293.87	-733.4	62.607	67.546	-614.26	1088.8	-204.84	-527.69	918.08	297.99	-778.4	188.5	47.799	-418.73	579.94	-118.49	-438.31	1026.9	-136.49	-863.44	217.66	66.511	-512.03	772.63	232	-472.59	502.29	156.37	-435.42	671.02	-141.14	-559.67	1077.1	298.68	-375.84	303.62	-90.079	-402.3	69.456	12.942	-640.28	1037.7	-37.476	-471.68	982.61	164.77	-594.65	1082	221.1	-487.02	33.302	-16.076	-650	1037.1	31.526	-416.79	518.88	-108.82	-472.47	547.25	159.16	-509.33	1597.3	90.083	-624.6	1219.3	11.853	-377.06	687.68	-99.775	-334.41	1638.8	-17.535	-568.77	1362.4	170.3	-312.47	26.38	-93.624	-502.1	1215	-230.71	-478.92	1233.3	257.3	-333.84	1638.1	57.315	-801.23	205.21	125.31	-495.49	478.05	29.969	-425.45	59.151	-68.837	-441.53	496.24	18.565	-436.24	1412.4	173.95	-364.74	397.05	-21.541	-431.27	828.76	247.24	-374.8	305.02	-18.295	-380.09	212.64	-18.276	-419.57	652.45	135.52	-519.97	370.79	73.16	-271.8	32.261	-18.519	-489.49	754.91	180.58	-597.56	312.32	70.929	-483.37	640.6	173.18	-452.68	760.66	-160.39
407	2.035	-225.88	48.03	-38.473	-506.39	1602.1	-47.082	-539.96	807.32	-272.06	-554.67	1088.7	-272.88	-446.92	1411.6	-151.13	-539.44	1474	17.514	-746.32	87.331	142.65	-680.45	47.866	107.22	-591.01	319.81	145.04	-562.47	947.84	-279.9	-658.92	262.86	70.376	-475.79	778.25	-246.48	-436.86	780.37	292.94	-722.28	65.219	67.942	-607.39	1088.1	-205.33	-524.22	918.36	297.03	-768.22	190.54	47.716	-415.52	580.02	-118.86	-433.78	1027.4	-136.92	-853.5	219.17	66.553	-507.05	778.21	237.88	-462.29	503.83	156.21	-431.93	671.16	-141.54	-555.81	1077.4	297.72	-374.39	303.28	-90.287	-402.24	69.427	12.969	-635.77	1038.2	-37.827	-466.95	982.81	164.66	-590.62	1082.4	220.11	-487.05	33.313	-16.1	-645.35	1037.4	31.208	-414.01	518.8	-109.2	-462.65	548.73	158.99	-504.64	1597.8	89.651	-619.95	1219.8	11.391	-373.52	687.65	-100.14	-329.73	1639.3	-17.956	-564.4	1362.9	169.68	-312.44	26.322	-93.687	-496.29	1215.2	-231.19	-474.93	1233.7	256.81	-329.17	1638.6	56.892	-790.96	207.28	125.31	-485.2	479.71	29.691	-425.39	59.121	-68.818	-439.87	496.31	18.297	-431.84	1412.9	173.68	-362.68	396.78	-21.912	-427.98	828.81	246.38	-373.33	304.75	-18.524	-379.21	212.44	-18.376	-411.08	654.46	135.06	-509.73	372.61	72.8	-271.78	32.226	-18.563	-482.85	754.37	180.29	-587.2	314.27	70.609	-474.68	641.97	172.93	-448.91	760.85	-160.81
408	2.04	-225.67	47.665	-38.572	-501.73	1602.5	-47.496	-530.72	807.29	-272.81	-548.11	1088.6	-273.51	-442.08	1412	-151.49	-534.78	1474.5	17.022	-734.9	89.845	142.98	-668.66	50.74	107.77	-580.4	321.56	144.78	-554.62	947.64	-280.58	-648.48	264.73	70.104	-466.07	779.01	-247.52	-433.73	780.4	292.03	-710.65	67.667	68.409	-600.48	1087.3	-205.78	-520.76	918.66	296.09	-757.75	192.27	47.562	-412.28	580.12	-119.2	-429.3	1027.8	-137.36	-843.31	220.24	66.418	-502.42	783.29	243.1	-452.03	505.48	156.03	-428.42	671.32	-141.91	-551.98	1077.8	296.76	-372.97	302.95	-90.478	-402.19	69.406	12.998	-631.29	1038.6	-38.146	-462.23	983	164.56	-586.59	1082.9	219.12	-487.08	33.324	-16.122	-640.71	1037.8	30.919	-411.27	518.72	-109.57	-452.89	550.32	158.82	-499.98	1598.2	89.234	-615.31	1220.3	10.94	-369.99	687.64	-100.43	-325.08	1639.8	-18.356	-560.04	1363.4	169.07	-312.41	26.264	-93.749	-490.49	1215.3	-231.66	-470.97	1234.1	256.34	-324.51	1639.1	56.487	-780.49	209.07	125.2	-474.93	481.39	29.383	-425.33	59.093	-68.795	-438.12	496.41	18.066	-427.45	1413.3	173.43	-360.65	396.51	-22.265	-424.67	828.88	245.54	-371.88	304.49	-18.738	-378.35	212.23	-18.462	-402.66	656.57	134.61	-499.45	374.45	72.478	-271.75	32.179	-18.606	-476.27	753.9	180.03	-576.66	316.12	70.287	-466.04	643.43	172.68	-445.13	761.04	-161.19
409	2.045	-225.47	47.308	-38.669	-497.09	1602.9	-47.895	-521.44	807.3	-273.52	-541.55	1088.4	-274.12	-437.25	1412.5	-151.83	-530.13	1475	16.548	-723.13	92.157	143.34	-656.38	53.538	108.43	-569.76	323.28	144.54	-546.75	947.46	-281.23	-637.84	266.44	69.828	-456.32	779.83	-248.55	-430.59	780.47	291.15	-698.54	69.933	68.944	-593.55	1086.5	-206.21	-517.3	918.99	295.15	-746.97	193.7	47.346	-409.04	580.22	-119.5	-424.86	1028.3	-137.81	-832.89	220.88	66.116	-498.1	787.79	247.55	-441.82	507.24	155.85	-424.91	671.48	-142.24	-548.16	1078.2	295.8	-371.57	302.61	-90.65	-402.13	69.392	13.03	-626.81	1039	-38.435	-457.51	983.19	164.47	-582.57	1083.3	218.13	-487.11	33.334	-16.142	-636.08	1038.1	30.658	-408.56	518.62	-109.91	-443.19	552.02	158.64	-495.34	1598.6	88.833	-610.69	1220.8	10.498	-366.49	687.65	-100.64	-320.45	1640.3	-18.737	-555.7	1363.9	168.48	-312.38	26.206	-93.811	-484.71	1215.5	-232.11	-467.03	1234.5	255.87	-319.88	1639.6	56.1	-769.81	210.57	124.99	-464.66	483.09	29.047	-425.28	59.067	-68.769	-436.26	496.55	17.865	-423.09	1413.8	173.18	-358.68	396.24	-22.595	-421.36	828.98	244.71	-370.47	304.22	-18.935	-377.52	212.01	-18.533	-394.33	658.77	134.16	-489.12	376.31	72.201	-271.72	32.119	-18.647	-469.74	753.51	179.78	-565.95	317.87	69.974	-457.44	644.98	172.43	-441.35	761.24	-161.55
410	2.05	-225.27	46.957	-38.765	-492.45	1603.4	-48.28	-512.13	807.35	-274.21	-534.98	1088.3	-274.71	-432.45	1413	-152.14	-525.49	1475.5	16.092	-711.01	94.257	143.72	-643.67	56.234	109.2	-559.07	324.98	144.31	-538.87	947.3	-281.85	-627.02	267.97	69.553	-446.54	780.72	-249.58	-427.44	780.58	290.3	-685.98	72.005	69.542	-586.6	1085.8	-206.6	-513.84	919.33	294.23	-735.91	194.81	47.074	-405.83	580.33	-119.78	-420.48	1028.7	-138.28	-822.21	221.09	65.662	-494.06	791.69	251.2	-431.67	509.09	155.66	-421.42	671.65	-142.55	-544.36	1078.6	294.85	-370.2	302.27	-90.8	-402.08	69.384	13.069	-622.33	1039.4	-38.694	-452.79	983.38	164.38	-578.54	1083.8	217.13	-487.14	33.343	-16.159	-631.45	1038.5	30.423	-405.91	518.52	-110.23	-433.56	553.82	158.45	-490.72	1599.1	88.447	-606.08	1221.3	10.06	-363.01	687.65	-100.81	-315.83	1640.8	-19.096	-551.38	1364.4	167.91	-312.35	26.149	-93.87	-478.95	1215.7	-232.56	-463.1	1234.9	255.41	-315.27	1640.1	55.733	-758.93	211.76	124.7	-454.4	484.8	28.687	-425.23	59.042	-68.736	-434.26	496.72	17.686	-418.74	1414.3	172.95	-356.75	395.97	-22.902	-418.04	829.11	243.89	-369.1	303.95	-19.113	-376.72	211.79	-18.59	-386.08	661.05	133.73	-478.75	378.16	71.971	-271.68	32.049	-18.685	-463.26	753.22	179.56	-555.05	319.5	69.677	-448.9	646.6	172.17	-437.58	761.44	-161.88
